<svg width="36" height="36" viewBox="0 0 36 36" fill="none" xmlns="http://www.w3.org/2000/svg">
<path d="M12.078 10.269L16.2 6.12902V23.391C16.2 23.8684 16.3896 24.3262 16.7272 24.6638C17.0648 25.0014 17.5226 25.191 18 25.191C18.4774 25.191 18.9352 25.0014 19.2728 24.6638C19.6104 24.3262 19.8 23.8684 19.8 23.391V6.12902L23.922 10.269C24.0893 10.4377 24.2884 10.5716 24.5078 10.663C24.7271 10.7544 24.9624 10.8015 25.2 10.8015C25.4376 10.8015 25.6729 10.7544 25.8922 10.663C26.1116 10.5716 26.3107 10.4377 26.478 10.269C26.6467 10.1017 26.7806 9.90261 26.872 9.68326C26.9634 9.46392 27.0104 9.22865 27.0104 8.99102C27.0104 8.7534 26.9634 8.51813 26.872 8.29879C26.7806 8.07944 26.6467 7.88036 26.478 7.71302L19.278 0.513024C19.1068 0.349151 18.905 0.220694 18.684 0.135024C18.2458 -0.0450081 17.7542 -0.0450081 17.316 0.135024C17.095 0.220694 16.8932 0.349151 16.722 0.513024L9.522 7.71302C9.35417 7.88085 9.22104 8.0801 9.13021 8.29938C9.03938 8.51866 8.99263 8.75368 8.99263 8.99102C8.99263 9.22837 9.03938 9.46339 9.13021 9.68267C9.22104 9.90195 9.35417 10.1012 9.522 10.269C9.68983 10.4369 9.88907 10.57 10.1084 10.6608C10.3276 10.7516 10.5627 10.7984 10.8 10.7984C11.0373 10.7984 11.2724 10.7516 11.4916 10.6608C11.7109 10.57 11.9102 10.4369 12.078 10.269ZM34.2 17.991C33.7226 17.991 33.2648 18.1807 32.9272 18.5182C32.5896 18.8558 32.4 19.3136 32.4 19.791V30.591C32.4 31.0684 32.2104 31.5263 31.8728 31.8638C31.5352 32.2014 31.0774 32.391 30.6 32.391H5.4C4.92261 32.391 4.46477 32.2014 4.12721 31.8638C3.78964 31.5263 3.6 31.0684 3.6 30.591V19.791C3.6 19.3136 3.41036 18.8558 3.07279 18.5182C2.73523 18.1807 2.27739 17.991 1.8 17.991C1.32261 17.991 0.864773 18.1807 0.527208 18.5182C0.189642 18.8558 0 19.3136 0 19.791V30.591C0 32.0232 0.568927 33.3967 1.58162 34.4094C2.59432 35.4221 3.96783 35.991 5.4 35.991H30.6C32.0322 35.991 33.4057 35.4221 34.4184 34.4094C35.4311 33.3967 36 32.0232 36 30.591V19.791C36 19.3136 35.8104 18.8558 35.4728 18.5182C35.1352 18.1807 34.6774 17.991 34.2 17.991Z" fill="black"/>
</svg>
